<svg xmlns="http://www.w3.org/2000/svg" xmlns:xlink="http://www.w3.org/1999/xlink" width="32" height="32" viewBox="0 0 32 32">
  <defs>
    <clipPath id="clip-path">
      <rect id="Rectangle_1076" data-name="Rectangle 1076" width="32" height="32" fill="#999"/>
    </clipPath>
  </defs>
  <g id="icon-eyeoff" clip-path="url(#clip-path)">
    <path id="Path_4419" data-name="Path 4419" d="M16.1,6.667,27.67,18.25A23.363,23.363,0,0,0,29.144,16c-.146-.251-.338-.571-.577-.94a24.893,24.893,0,0,0-2.707-3.478C23.492,9.052,20.187,6.7,16.1,6.667ZM30.667,16l1.192-.6a1.334,1.334,0,0,1-.017,1.225,26.008,26.008,0,0,1-3.036,4.483,1.333,1.333,0,0,1-1.964.084L12.257,6.6A1.333,1.333,0,0,1,12.9,4.355,13.494,13.494,0,0,1,16,4c5.2,0,9.193,2.969,11.8,5.755a27.573,27.573,0,0,1,3,3.855c.339.525.6.966.774,1.278.088.156.155.281.2.369l.054.1.015.03,0,.009,0,0h0S31.859,15.4,30.667,16ZM7.271,7.02a1.333,1.333,0,0,1,1.752.117l5.088,5.088.01.009,5.645,5.645.009.009,5.088,5.088a1.333,1.333,0,0,1-.135,2A14.76,14.76,0,0,1,16.022,28H16c-5.2,0-9.194-2.969-11.806-5.755a27.57,27.57,0,0,1-3-3.855c-.339-.525-.6-.966-.774-1.278-.088-.156-.155-.281-.2-.369l-.054-.1-.015-.03,0-.009,0,0s0,0,1.192-.6l-1.193.6A1.333,1.333,0,0,1,.158,15.37,25.934,25.934,0,0,1,7.271,7.02ZM2.857,16c.145.251.338.571.576.939a24.9,24.9,0,0,0,2.707,3.478c2.386,2.545,5.721,4.908,9.85,4.912a12.094,12.094,0,0,0,5.839-1.619l-3.1-3.1a5.333,5.333,0,0,1-7.352-7.352l-3.4-3.4A23.268,23.268,0,0,0,2.857,16Zm10.514-.748a2.667,2.667,0,0,0,3.373,3.373Z" fill="#999" fill-rule="evenodd"/>
    <path id="Path_4420" data-name="Path 4420" d="M.391.391a1.333,1.333,0,0,1,1.886,0L31.61,29.724a1.333,1.333,0,0,1-1.886,1.886L.391,2.276A1.333,1.333,0,0,1,.391.391Z" fill="#999" fill-rule="evenodd"/>
  </g>
</svg>
