<svg xmlns="http://www.w3.org/2000/svg" xmlns:xlink="http://www.w3.org/1999/xlink" width="32" height="32" viewBox="0 0 32 32">
  <defs>
    <clipPath id="clip-path">
      <rect id="Rectangle_1077" data-name="Rectangle 1077" width="32" height="32" fill="#fff"/>
    </clipPath>
  </defs>
  <g id="icon-eyeon" clip-path="url(#clip-path)">
    <path id="Path_4421" data-name="Path 4421" d="M2.854,16c.146.252.339.573.578.943a24.9,24.9,0,0,0,2.707,3.478c2.388,2.547,5.727,4.912,9.861,4.912s7.473-2.365,9.861-4.912a24.893,24.893,0,0,0,2.707-3.478c.239-.371.433-.691.578-.943-.146-.252-.339-.573-.578-.943a24.893,24.893,0,0,0-2.707-3.478C23.473,9.031,20.134,6.667,16,6.667S8.527,9.031,6.139,11.579a24.9,24.9,0,0,0-2.707,3.478C3.193,15.427,3,15.748,2.854,16Zm27.812,0c1.192-.6,1.192-.6,1.192-.6h0l0,0,0-.009-.015-.03-.054-.1c-.046-.088-.114-.212-.2-.369-.176-.312-.434-.753-.774-1.278a27.569,27.569,0,0,0-3-3.855C25.194,6.969,21.2,4,16,4S6.806,6.969,4.194,9.755a27.561,27.561,0,0,0-3,3.855c-.339.525-.6.965-.774,1.278-.088.156-.155.281-.2.369l-.054.1-.015.03,0,.009,0,0s0,0,1.192.6L.141,15.4a1.333,1.333,0,0,0,0,1.193L1.333,16c-1.193.6-1.192.6-1.192.6l0,0,0,.009.015.03.054.1c.046.088.114.212.2.369.176.313.435.753.774,1.278a27.564,27.564,0,0,0,3,3.855C6.806,25.031,10.8,28,16,28s9.194-2.969,11.806-5.755a27.572,27.572,0,0,0,3-3.855c.339-.525.6-.965.774-1.278.088-.156.155-.281.2-.369l.054-.1.015-.03,0-.009,0,0h0S31.859,16.6,30.667,16Zm0,0,1.192.6a1.333,1.333,0,0,0,0-1.193Z" fill="#999" fill-rule="evenodd"/>
    <path id="Path_4422" data-name="Path 4422" d="M16,13.333A2.667,2.667,0,1,0,18.667,16,2.667,2.667,0,0,0,16,13.333ZM10.667,16A5.333,5.333,0,1,1,16,21.333,5.333,5.333,0,0,1,10.667,16Z" fill="#999" fill-rule="evenodd"/>
  </g>
</svg>
