<svg xmlns="http://www.w3.org/2000/svg" width="160" height="160" viewBox="0 0 160 160">
  <g id="member_avatar" data-name="member avatar" transform="translate(-420 -381)">
    <rect id="Rectangle_865" data-name="Rectangle 865" width="160" height="160" rx="80" transform="translate(420 381)" fill="#fd9a1a"/>
    <path id="icon-user" d="M54,55.715A22.858,22.858,0,1,0,31,32.857,22.929,22.929,0,0,0,54,55.715Zm16.245,0h9.04a20.017,20.017,0,0,1,7.926,1.633,20.662,20.662,0,0,1,6.721,4.664A21.6,21.6,0,0,1,98.423,69,22.261,22.261,0,0,1,100,77.239v9.55a3.277,3.277,0,0,1-.9,2.27,3.029,3.029,0,0,1-2.183.94H11.088A3.029,3.029,0,0,1,8.9,89.06,3.276,3.276,0,0,1,8,86.79v-9.55A22.268,22.268,0,0,1,9.576,69a21.6,21.6,0,0,1,4.488-6.983,20.672,20.672,0,0,1,6.717-4.666A20.021,20.021,0,0,1,28.7,55.715h8.877a5.987,5.987,0,0,1,2.882.749,6.265,6.265,0,0,1,2.213,2.061l6.052,9.265a6.266,6.266,0,0,0,2.2,2.044,5.965,5.965,0,0,0,5.726.041,6.253,6.253,0,0,0,2.224-2.012L65.2,58.455a6.255,6.255,0,0,1,2.2-2.009A5.989,5.989,0,0,1,70.245,55.719Z" transform="translate(446 409)" fill="#ffddb1" fill-rule="evenodd"/>
  </g>
</svg>
